<?xml version="1.0" encoding="utf-8"?>
<!DOCTYPE svg PUBLIC "-//W3C//DTD SVG 1.0//EN" "http://www.w3.org/TR/2001/REC-SVG-20010904/DTD/svg10.dtd">
<svg version="1.0" xmlns="http://www.w3.org/2000/svg" xmlns:xlink="http://www.w3.org/1999/xlink" x="0px" y="0px"
	 width="576px" height="576px" viewBox="0 0 576 576" style="enable-background:new 0 0 576 576;" xml:space="preserve">
<style type="text/css">
</style>
<path class="st0" d="M532.71,196.11l-57.93,25.67c11.73,26.4,17.6,55,17.6,84.33c0,112.93-91.66,205.32-205.32,205.32
	c-113.66,0-204.59-91.66-204.59-205.32c0-113.66,91.66-204.59,205.32-204.59c0.73,0,2.2,0,2.2,0v37.4l120.26-69.66L289.99-0.42
	v38.13c-0.73,0-2.2,0-2.2,0c-148.13,0-269.12,120.26-269.12,269.12c0,148.86,120.99,268.39,269.12,268.39
	c148.13,0,269.12-120.26,269.12-269.12C556.91,267.97,548.11,230.57,532.71,196.11z"/>
</svg>
