<svg xmlns="http://www.w3.org/2000/svg" xml:space="preserve" fill-rule="evenodd" stroke-linejoin="round"
	 stroke-miterlimit="2" clip-rule="evenodd" viewBox="0 0 250 250">
	<path fill="#074d39" d="M109.19 4.517a33.993 33.993 0 0 1 31.62 0 1759.816 1759.816 0 0 1 82.694 46.518 33.996 33.996 0 0 1 16.467 28.136 1661.92 1661.92 0 0 1 0 91.657 33.999 33.999 0 0 1-16.467 28.136 1758.778 1758.778 0 0 1-82.694 46.52 33.997 33.997 0 0 1-31.62 0 1759.188 1759.188 0 0 1-82.693-46.519 33.998 33.998 0 0 1-16.468-28.137c-.843-30.474-.843-61.182 0-91.657a33.997 33.997 0 0 1 16.468-28.136 1759.188 1759.188 0 0 1 82.692-46.518Z"/>
	<path fill="#fff" fill-rule="nonzero"
		  d="m203.538 95.726-18.576 8.232c3.761 8.465 5.644 17.637 5.644 27.042 0 36.213-29.393 65.84-65.84 65.84S59.16 167.446 59.16 131 88.553 65.394 125 65.394h.706v11.993l38.563-22.337-38.563-22.345v12.227H125c-47.5 0-86.298 38.564-86.298 86.299 0 47.734 38.797 86.064 86.298 86.064 47.5 0 86.298-38.564 86.298-86.298 0-12.227-2.822-24.22-7.76-35.27Z"/>
	<path fill="#fff" fill-rule="nonzero"
		  d="M185.368 57.225c1.681 0 3.427.216 5.235.651 1.808.433 3.397 1.194 4.767 2.278l-4.486 5.444a6.948 6.948 0 0 0-2.573-1.418 12.709 12.709 0 0 0-2.943-.535v7.396l4.486 1.302c2.057.62 3.702 1.637 4.932 3.047 1.232 1.412 1.846 3.203 1.846 5.373 0 1.644-.294 3.085-.886 4.328a9.365 9.365 0 0 1-2.432 3.162c-1.028.87-2.228 1.55-3.6 2.047-1.37.495-2.82.823-4.346.977v3.256h-3.087v-3.256c-2.056 0-4.105-.28-6.146-.837a13.194 13.194 0 0 1-5.4-2.931l4.955-5.536c.81.993 1.792 1.698 2.945 2.117 1.154.417 2.368.675 3.646.767v-7.862l-3.413-1.024c-2.368-.743-4.167-1.79-5.397-3.139-1.232-1.35-1.849-3.203-1.849-5.559 0-1.458.297-2.776.89-3.954a9.588 9.588 0 0 1 2.36-3.025 12.516 12.516 0 0 1 3.412-2.047 14.977 14.977 0 0 1 3.997-1.022v-3.257h3.087v3.257Zm-3.087 6.56a6.545 6.545 0 0 0-2.337.976c-.684.465-1.028 1.194-1.028 2.186 0 .713.14 1.272.42 1.674.28.403.608.723.983.954.373.234.746.396 1.122.49.373.091.654.17.84.231v-6.511Zm3.087 20.98c.467-.094.943-.226 1.424-.395a4.817 4.817 0 0 0 1.286-.675c.374-.28.679-.613.911-1 .235-.388.352-.845.352-1.372 0-.498-.087-.917-.257-1.256a2.643 2.643 0 0 0-.678-.861 4.323 4.323 0 0 0-.982-.605 20.341 20.341 0 0 0-1.17-.49l-.886-.325v6.979Z"/>
</svg>
